<svg width="26" height="25" viewBox="0 0 26 25" fill="none" xmlns="http://www.w3.org/2000/svg">
<path d="M0.56 25L5.46 0.499998H15.925C19.075 0.499998 21.5017 1.18833 23.205 2.565C24.9317 3.94167 25.795 5.855 25.795 8.305C25.795 10.3583 25.2933 12.155 24.29 13.695C23.31 15.2117 21.91 16.39 20.09 17.23C18.27 18.07 16.1233 18.49 13.65 18.49H5.705L9.38 15.515L7.49 25H0.56ZM15.925 25L10.92 16.075H18.095L23.17 25H15.925ZM9.205 16.32L6.79 13.135H13.965C15.505 13.135 16.695 12.7733 17.535 12.05C18.375 11.3267 18.795 10.3 18.795 8.97C18.795 7.94333 18.4567 7.185 17.78 6.695C17.1033 6.205 16.1583 5.96 14.945 5.96H8.26L11.97 2.67L9.205 16.32Z" fill="white"/>
</svg>
